<svg xmlns="http://www.w3.org/2000/svg" viewBox="0 0 131.75517 54.26041"><title>logo-white</title><path d="M27.13019,0A27.13071,27.13071,0,1,1,7.9464,7.9464,27.046,27.046,0,0,1,27.13019,0ZM44.97275,9.28765a25.2339,25.2339,0,1,0,7.39033,17.84256A25.15508,25.15508,0,0,0,44.97275,9.28765Z" style="fill:#fff"/><path d="M69.43388,14.74085a4.913,4.913,0,0,1-1.81347-.99707l.581-1.22412a4.81013,4.81013,0,0,0,1.6084.918,5.90767,5.90767,0,0,0,2.01758.35351,3.62865,3.62865,0,0,0,2.04-.46338,1.42569,1.42569,0,0,0,.6748-1.23193,1.21708,1.21708,0,0,0-.36816-.91846,2.47556,2.47556,0,0,0-.91114-.5415q-.54053-.18824-1.53027-.42383a15.73,15.73,0,0,1-2.001-.59619A3.306,3.306,0,0,1,68.429,8.69739,2.4494,2.4494,0,0,1,67.887,7.026a2.82224,2.82224,0,0,1,.46386-1.58544,3.17673,3.17673,0,0,1,1.4043-1.12989A5.6952,5.6952,0,0,1,72.094,3.88684a7.40135,7.40135,0,0,1,1.915.251A5.08386,5.08386,0,0,1,75.62529,4.86l-.51758,1.25537a5.70876,5.70876,0,0,0-1.47559-.667A5.522,5.522,0,0,0,72.094,5.22083a3.38829,3.38829,0,0,0-2.001.48682,1.48874,1.48874,0,0,0-.667,1.25537,1.20117,1.20117,0,0,0,.376.91845,2.62066,2.62066,0,0,0,.9346.54932,14.5186,14.5186,0,0,0,1.51464.416,15.35049,15.35049,0,0,1,1.99317.59619,3.36433,3.36433,0,0,1,1.29492.91064,2.3964,2.3964,0,0,1,.542,1.64795,2.8022,2.8022,0,0,1-.47168,1.57764,3.15016,3.15016,0,0,1-1.42773,1.12988,5.91119,5.91119,0,0,1-2.35449.416A7.51454,7.51454,0,0,1,69.43388,14.74085Z" style="fill:#fff"/><path d="M85.63994,11.34241h-6.75a2.61214,2.61214,0,0,0,.96582,1.76563,3.14634,3.14634,0,0,0,2.04785.66748A3.0842,3.0842,0,0,0,84.305,12.77063l.832.97315a3.63733,3.63733,0,0,1-1.4043,1.00488,5.29871,5.29871,0,0,1-4.21484-.19629,3.86291,3.86291,0,0,1-1.57715-1.51465A4.33774,4.33774,0,0,1,77.3831,10.84a4.407,4.407,0,0,1,.542-2.18164A3.87454,3.87454,0,0,1,79.4163,7.14368a4.24723,4.24723,0,0,1,2.14258-.5415,4.16606,4.16606,0,0,1,2.127.5415,3.80263,3.80263,0,0,1,1.459,1.51465,4.6143,4.6143,0,0,1,.52637,2.229A4.42937,4.42937,0,0,1,85.63994,11.34241ZM79.74541,8.53284a2.66026,2.66026,0,0,0-.85547,1.72656h5.33691a2.6778,2.6778,0,0,0-.85547-1.71875,2.81006,2.81006,0,0,0-3.626-.00781Z" style="fill:#fff"/><path d="M89.1165,14.54456A4.02855,4.02855,0,0,1,87.555,13.02991,4.25144,4.25144,0,0,1,86.98955,10.84,4.25091,4.25091,0,0,1,87.555,8.65052,3.97218,3.97218,0,0,1,89.1165,7.14368a4.679,4.679,0,0,1,2.26855-.5415,4.35543,4.35543,0,0,1,2.01661.45507,3.25371,3.25371,0,0,1,1.374,1.31836l-1.14649.7378a2.56281,2.56281,0,0,0-.97265-.89453,2.77907,2.77907,0,0,0-1.28711-.29834,2.97242,2.97242,0,0,0-1.46777.36132A2.57145,2.57145,0,0,0,88.88115,9.3097,3.10877,3.10877,0,0,0,88.512,10.84a3.14138,3.14138,0,0,0,.36914,1.54639,2.56841,2.56841,0,0,0,1.02051,1.02783,2.97242,2.97242,0,0,0,1.46777.36133,2.77907,2.77907,0,0,0,1.28711-.29834,2.56281,2.56281,0,0,0,.97265-.89453l1.14649.72167a3.299,3.299,0,0,1-1.374,1.32666,4.29276,4.29276,0,0,1-2.01661.4629A4.62358,4.62358,0,0,1,89.1165,14.54456Z" style="fill:#fff"/><path d="M104.4749,6.68079v8.31885h-1.42774V13.74378a3.034,3.034,0,0,1-1.20117.99707,3.74534,3.74534,0,0,1-1.624.353,3.63154,3.63154,0,0,1-2.62207-.91846,3.5829,3.5829,0,0,1-.957-2.70752V6.68079H98.1497v4.61475a2.58157,2.58157,0,0,0,.58106,1.82861,2.16778,2.16778,0,0,0,1.66308.61963,2.48163,2.48163,0,0,0,1.88379-.72168,2.83218,2.83218,0,0,0,.69043-2.04053V6.68079Z" style="fill:#fff"/><path d="M109.95341,6.97864a4.21209,4.21209,0,0,1,1.86719-.37646V8.06165a2.98431,2.98431,0,0,0-.34473-.01563,2.535,2.535,0,0,0-1.92285.73,2.88974,2.88974,0,0,0-.69922,2.07959v4.14405H107.347V6.68079h1.44433v1.397A2.57035,2.57035,0,0,1,109.95341,6.97864Z" style="fill:#fff"/><path d="M113.69658,4.797a.92711.92711,0,0,1-.29-.69043.954.954,0,0,1,.29-.69873.98917.98917,0,0,1,.72949-.29,1.02278,1.02278,0,0,1,.73047.27442.90185.90185,0,0,1,.29.68261.97106.97106,0,0,1-.29.71436.99145.99145,0,0,1-.73047.29053A1.00279,1.00279,0,0,1,113.69658,4.797Zm-.02344,1.88379H115.18v8.31885h-1.50684Z" style="fill:#fff"/><path d="M122.72978,14.51282a2.24406,2.24406,0,0,1-.81641.43164,3.40057,3.40057,0,0,1-1.0039.14942,2.66687,2.66687,0,0,1-1.94629-.67481,2.57657,2.57657,0,0,1-.69141-1.93066V7.92054h-1.41211V6.68079h1.41211V4.86h1.50684v1.8208h2.38672V7.92054h-2.38672v4.50488a1.45891,1.45891,0,0,0,.33789,1.03613,1.25587,1.25587,0,0,0,.96484.36084,1.81555,1.81555,0,0,0,1.17774-.39258Z" style="fill:#fff"/><path d="M131.75517,6.68079,127.721,15.83167a4.12633,4.12633,0,0,1-1.24805,1.78906,2.84625,2.84625,0,0,1-1.71875.51807,3.62729,3.62729,0,0,1-1.18457-.19629,2.42968,2.42968,0,0,1-.95019-.57276l.64355-1.12988a2.09833,2.09833,0,0,0,1.49121.61182,1.43943,1.43943,0,0,0,.918-.29,2.47022,2.47022,0,0,0,.667-.99707l.26757-.58057-3.67285-8.30322h1.56934l2.90332,6.65527,2.87305-6.65527Z" style="fill:#fff"/><path d="M70.80693,22.87806h-3.7666V21.51233h9.08789v1.36573H72.36064v9.62158H70.80693Z" style="fill:#fff"/><path d="M78.09013,32.04456a3.98092,3.98092,0,0,1-1.5459-1.51465,4.57819,4.57819,0,0,1,0-4.37939,3.92525,3.92525,0,0,1,1.5459-1.50684,4.84237,4.84237,0,0,1,4.4502,0,3.95017,3.95017,0,0,1,1.53808,1.50684,4.57812,4.57812,0,0,1,0,4.37939,4.00683,4.00683,0,0,1-1.53808,1.51465,4.7812,4.7812,0,0,1-4.4502,0Zm3.665-1.13818a2.60444,2.60444,0,0,0,.99707-1.03565,3.43045,3.43045,0,0,0,0-3.061,2.553,2.553,0,0,0-.99707-1.02784,3.03436,3.03436,0,0,0-2.87207,0,2.60332,2.60332,0,0,0-1.00488,1.02784,3.35745,3.35745,0,0,0,0,3.061,2.65629,2.65629,0,0,0,1.00488,1.03565,2.97781,2.97781,0,0,0,2.87207,0Z" style="fill:#fff"/><path d="M89.95634,28.62268l-1.72656,1.60108v2.27588H86.72294V20.85315h1.50684v7.47119l4.53613-4.14355h1.82032l-3.5,3.4375,3.8457,4.88135H93.07939Z" style="fill:#fff"/><path d="M103.53349,28.84241h-6.749a2.61107,2.61107,0,0,0,.96484,1.76563,3.14907,3.14907,0,0,0,2.04883.66748,3.08561,3.08561,0,0,0,2.40137-1.00489l.832.97315a3.64792,3.64792,0,0,1-1.40528,1.00488,5.29635,5.29635,0,0,1-4.21386-.19629,3.86541,3.86541,0,0,1-1.57813-1.51465A4.347,4.347,0,0,1,95.27763,28.34a4.41687,4.41687,0,0,1,.541-2.18164,3.8809,3.8809,0,0,1,1.49121-1.51465,4.24977,4.24977,0,0,1,2.14258-.5415,4.166,4.166,0,0,1,2.127.5415,3.79848,3.79848,0,0,1,1.46,1.51465,4.61389,4.61389,0,0,1,.52539,2.229A4.16322,4.16322,0,0,1,103.53349,28.84241Zm-5.89355-2.80957a2.65581,2.65581,0,0,0-.85547,1.72656h5.33691a2.6778,2.6778,0,0,0-.85547-1.71875,2.81006,2.81006,0,0,0-3.626-.00781Z" style="fill:#fff"/><path d="M112.61357,25.02015a3.6108,3.6108,0,0,1,.93457,2.69189v4.7876H112.0413V27.88489a2.55629,2.55629,0,0,0-.58105-1.8208,2.18442,2.18442,0,0,0-1.66406-.6123,2.5923,2.5923,0,0,0-1.93067.71435,2.79225,2.79225,0,0,0-.70605,2.04834v4.28516h-1.50684V24.18079H107.097v1.25537a2.92887,2.92887,0,0,1,1.23144-.98877,4.312,4.312,0,0,1,1.7666-.34521A3.43625,3.43625,0,0,1,112.61357,25.02015Z" style="fill:#fff"/><path d="M78.81181,49.99964l-.01562-8.00489-3.97071,6.6709h-.72265l-3.97071-6.624v7.958H68.62529V39.01233H69.9124l4.583,7.72266,4.5205-7.72266H80.303l.01563,10.98731Z" style="fill:#fff"/><path d="M89.06962,42.44983a3.27131,3.27131,0,0,1,.918,2.52686v5.023H88.55888V48.901a2.37975,2.37975,0,0,1-1.07519.88672,4.10188,4.10188,0,0,1-1.65528.30616,3.46754,3.46754,0,0,1-2.2373-.67481,2.3196,2.3196,0,0,1-.03909-3.53955,3.94659,3.94659,0,0,1,2.543-.66748h2.38575v-.29785a1.92037,1.92037,0,0,0-.56543-1.49121,2.3809,2.3809,0,0,0-1.66309-.51807,4.40632,4.40632,0,0,0-1.44433.24316,3.73212,3.73212,0,0,0-1.19336.65137l-.62793-1.12988a4.57485,4.57485,0,0,1,1.53906-.793,6.44761,6.44761,0,0,1,1.89844-.27441A3.76472,3.76472,0,0,1,89.06962,42.44983Zm-1.499,6.09766a2.20016,2.20016,0,0,0,.91016-1.09082V46.29554H86.15751q-1.91454,0-1.915,1.28711a1.16324,1.16324,0,0,0,.4873.98876,2.22187,2.22187,0,0,0,1.34961.36084A2.79689,2.79689,0,0,0,87.5706,48.54749Z" style="fill:#fff"/><path d="M95.387,41.97864a4.21941,4.21941,0,0,1,1.86816-.37646v1.45947a3.00332,3.00332,0,0,0-.3457-.01563,2.53643,2.53643,0,0,0-1.92285.73,2.88939,2.88939,0,0,0-.69825,2.07959v4.14405H92.78154V41.68079h1.44433v1.397A2.56807,2.56807,0,0,1,95.387,41.97864Z" style="fill:#fff"/><path d="M102.34013,46.12268l-1.72656,1.60108v2.27588H99.10673V38.35315h1.50684v7.47119l4.53613-4.14355H106.971l-3.5,3.4375,3.8457,4.88135h-1.85253Z" style="fill:#fff"/><path d="M115.91826,46.34241h-6.75a2.61214,2.61214,0,0,0,.96582,1.76563,3.14634,3.14634,0,0,0,2.04785.66748,3.0842,3.0842,0,0,0,2.40137-1.00489l.832.97315a3.63733,3.63733,0,0,1-1.4043,1.00488,5.29871,5.29871,0,0,1-4.21484-.19629,3.86291,3.86291,0,0,1-1.57715-1.51465,4.33774,4.33774,0,0,1-.55762-2.19775,4.40715,4.40715,0,0,1,.542-2.18164,3.8746,3.8746,0,0,1,1.49121-1.51465,4.24723,4.24723,0,0,1,2.14258-.5415,4.16606,4.16606,0,0,1,2.127.5415,3.80263,3.80263,0,0,1,1.459,1.51465,4.6143,4.6143,0,0,1,.52637,2.229A4.42937,4.42937,0,0,1,115.91826,46.34241Zm-5.89453-2.80957a2.66026,2.66026,0,0,0-.85547,1.72656h5.33691a2.6778,2.6778,0,0,0-.85547-1.71875,2.81006,2.81006,0,0,0-3.626-.00781Z" style="fill:#fff"/><path d="M122.71416,49.51282a2.24406,2.24406,0,0,1-.81641.43164,3.40064,3.40064,0,0,1-1.00391.14942,2.66687,2.66687,0,0,1-1.94629-.67481,2.57661,2.57661,0,0,1-.6914-1.93066V42.92054H116.844V41.68079h1.41211V39.86H119.763v1.8208h2.38672v1.23975H119.763v4.50488a1.459,1.459,0,0,0,.33789,1.03613,1.2559,1.2559,0,0,0,.96485.36084,1.81552,1.81552,0,0,0,1.17773-.39258Z" style="fill:#fff"/><path d="M7.37236,31.98694l1.4209-1.689a6.18756,6.18756,0,0,0,4.24218,1.74658c1.459,0,2.37989-.67188,2.37989-1.689V30.317c0-.96-.53711-1.478-3.03223-2.05371-2.86035-.69141-4.47266-1.53613-4.47266-4.01221V24.213c0-2.30371,1.91895-3.897,4.58692-3.897a7.44719,7.44719,0,0,1,4.876,1.68946l-1.26661,1.78515a6.10442,6.10442,0,0,0-3.64746-1.38232c-1.38183,0-2.18847.71045-2.18847,1.59326v.03857c0,1.03663.61425,1.49707,3.18652,2.11133,2.84082.69092,4.31934,1.7085,4.31934,3.93506v.03858c0,2.51464-1.97754,4.01171-4.79883,4.01171A8.2767,8.2767,0,0,1,7.37236,31.98694Z" style="fill:#fff"/><path d="M23.57158,22.69641H19.30986V20.50794H30.21318v2.18847H25.95146V33.945H23.57158Z" style="fill:#fff"/><path d="M32.70634,20.50794H35.221l4.08887,6.354,4.08887-6.354h2.51464V33.945H43.552V24.30872l-4.24217,6.33447h-.07715l-4.2041-6.2959V33.945H32.70634Z" style="fill:#fff"/></svg>