<svg xmlns="http://www.w3.org/2000/svg" viewBox="0 0 54.2604 54.26041"><title>stm-circle</title><path d="M27.13019,0A27.13071,27.13071,0,1,1,7.9464,7.9464,27.046,27.046,0,0,1,27.13019,0ZM44.97275,9.28765a25.2339,25.2339,0,1,0,7.39033,17.84256A25.15508,25.15508,0,0,0,44.97275,9.28765Z" style="fill:#41c15d"/><path d="M7.37236,31.98694l1.4209-1.689a6.18756,6.18756,0,0,0,4.24218,1.74658c1.459,0,2.37989-.67188,2.37989-1.689V30.317c0-.96-.53711-1.478-3.03223-2.05371-2.86035-.69141-4.47266-1.53613-4.47266-4.01221V24.213c0-2.30371,1.91895-3.897,4.58692-3.897a7.44719,7.44719,0,0,1,4.876,1.68946l-1.26661,1.78515a6.10442,6.10442,0,0,0-3.64746-1.38232c-1.38183,0-2.18847.71045-2.18847,1.59326v.03857c0,1.03663.61425,1.49707,3.18652,2.11133,2.84082.69092,4.31934,1.7085,4.31934,3.93506v.03858c0,2.51464-1.97754,4.01171-4.79883,4.01171A8.2767,8.2767,0,0,1,7.37236,31.98694Z" style="fill:#41c15d"/><path d="M23.57158,22.69641H19.30986V20.50794H30.21318v2.18847H25.95146V33.945H23.57158Z" style="fill:#41c15d"/><path d="M32.70634,20.50794H35.221l4.08887,6.354,4.08887-6.354h2.51464V33.945H43.552V24.30872l-4.24217,6.33447h-.07715l-4.2041-6.2959V33.945H32.70634Z" style="fill:#41c15d"/></svg>